<svg width="16" height="16" viewBox="0 0 16 16" fill="none" xmlns="http://www.w3.org/2000/svg">
<g id="Icon_KZ">
<g id="Mask Group">
<mask id="mask0_4306_149" style="mask-type:alpha" maskUnits="userSpaceOnUse" x="2" y="2" width="12" height="12">
<circle id="Ellipse 62" cx="8" cy="8" r="6" fill="#C4C4C4"/>
</mask>
<g mask="url(#mask0_4306_149)">
<g id="Group 26418">
<path id="Rectangle 1352" d="M14 2H2V14H14V2Z" fill="#00AFCA"/>
</g>
</g>
</g>
<circle id="Ellipse 1198" cx="8" cy="7" r="2" fill="#FADB14"/>
<path id="Ellipse 1199" d="M11.554 8.83547C11.2231 9.47627 10.725 10.0157 10.1126 10.3966C9.50021 10.7775 8.7962 10.9858 8.07512 10.9993C7.35403 11.0128 6.6427 10.8312 6.01641 10.4735C5.39012 10.1159 4.87218 9.59556 4.51741 8.96764L5.47045 8.42918C5.72813 8.88526 6.10434 9.2632 6.55923 9.52297C7.01413 9.78275 7.53081 9.9147 8.05456 9.90486C8.57832 9.89502 9.08967 9.74376 9.53449 9.46709C9.97932 9.19041 10.3411 8.79862 10.5814 8.33318L11.554 8.83547Z" fill="#FADB14"/>
</g>
</svg>
