<svg width="16" height="16" viewBox="0 0 16 16" fill="none" xmlns="http://www.w3.org/2000/svg">
<g id="Icon_TR">
<g id="Mask Group">
<mask id="mask0_4306_167" style="mask-type:alpha" maskUnits="userSpaceOnUse" x="2" y="2" width="12" height="12">
<circle id="Ellipse 62" cx="8" cy="8" r="6" fill="#C4C4C4"/>
</mask>
<g mask="url(#mask0_4306_167)">
<g id="Group 26418">
<path id="Rectangle 1352" d="M14 2H2V14H14V2Z" fill="#F5222D"/>
</g>
</g>
</g>
<path id="Union" fill-rule="evenodd" clip-rule="evenodd" d="M6.87354 6.16779C7.31743 5.72389 7.91947 5.47449 8.54724 5.47449C9.04683 5.47059 9.53435 5.62804 9.93726 5.92347C9.55074 5.50091 9.04554 5.20506 8.48792 5.07465C7.93029 4.94424 7.34633 4.98537 6.8125 5.19269C6.27867 5.40002 5.8199 5.76387 5.49646 6.23646C5.17302 6.70905 5 7.26834 5 7.84101C5 8.41368 5.17302 8.97297 5.49646 9.44556C5.8199 9.91815 6.27867 10.2819 6.8125 10.4893C7.34633 10.6966 7.93029 10.7378 8.48792 10.6074C9.04554 10.477 9.55074 10.1811 9.93726 9.75849C9.53445 10.0542 9.04694 10.212 8.54724 10.2085C7.91947 10.2085 7.31743 9.9591 6.87354 9.5152C6.42964 9.07131 6.1803 8.46927 6.1803 7.8415C6.1803 7.21373 6.42964 6.61169 6.87354 6.16779ZM10.8672 7.84153C10.8672 8.36454 10.4379 8.78853 9.90822 8.78853C9.37858 8.78853 8.94922 8.36454 8.94922 7.84153C8.94922 7.31852 9.37858 6.89453 9.90822 6.89453C10.4379 6.89453 10.8672 7.31852 10.8672 7.84153Z" fill="#F1F8FE"/>
</g>
</svg>
